<?xml version="1.0" standalone="no"?>
<!DOCTYPE svg PUBLIC "-//W3C//DTD SVG 20010904//EN"
 "http://www.w3.org/TR/2001/REC-SVG-20010904/DTD/svg10.dtd">
<svg version="1.0" xmlns="http://www.w3.org/2000/svg"
 width="261.000000pt" height="261.000000pt" viewBox="0 0 261.000000 261.000000"
 preserveAspectRatio="xMidYMid meet">
<metadata>
Created by potrace 1.11, written by Peter Selinger 2001-2013
</metadata>
<g transform="translate(0.000000,261.000000) scale(0.100000,-0.100000)"
fill="#000000" stroke="none">
<path d="M1180 2583 c-33 -31 -42 -64 -28 -106 21 -59 97 -86 146 -51 41 28
212 11 365 -36 166 -52 345 -160 464 -282 102 -104 119 -128 126 -173 8 -52
45 -85 95 -85 107 0 139 141 42 190 -20 10 -49 35 -64 55 -51 66 -160 171
-239 229 -204 150 -427 232 -687 252 -47 4 -94 13 -105 20 -32 23 -81 17 -115
-13z m115 -55 c9 -27 -3 -54 -30 -66 -34 -16 -77 18 -70 55 5 29 3 26 29 40
25 14 63 -2 71 -29z m1086 -538 c44 -24 8 -106 -42 -93 -26 7 -49 41 -42 62
15 41 44 52 84 31z"/>
<path d="M453 2343 c-50 -24 -67 -86 -39 -142 12 -23 16 -119 19 -537 2 -280
7 -522 10 -537 9 -47 58 -189 79 -232 34 -68 98 -157 152 -213 254 -265 618
-348 966 -221 228 83 434 295 516 530 26 75 29 85 44 174 11 63 6 232 -9 305
-66 323 -302 577 -628 677 -79 24 -103 26 -243 26 -140 0 -164 -2 -244 -27
-49 -15 -120 -42 -158 -61 -38 -19 -83 -35 -101 -35 -94 0 -139 -99 -78 -169
40 -46 125 -36 157 18 23 39 133 94 240 121 342 85 700 -77 854 -388 65 -130
75 -181 75 -357 -1 -109 -5 -141 -24 -200 -98 -291 -305 -471 -611 -530 -33
-7 -189 -7 -220 0 -14 2 -38 7 -55 11 -54 10 -161 54 -221 90 -186 112 -310
290 -354 507 -8 41 -12 209 -11 540 0 437 2 485 18 514 45 83 -48 178 -134
136z m75 -49 c45 -31 11 -103 -43 -90 -46 12 -53 79 -11 96 29 12 29 12 54 -6z
m329 -320 c19 -29 -4 -68 -42 -72 -51 -6 -77 62 -34 92 25 17 56 9 76 -20z"/>
<path d="M1193 1765 c-160 -43 -285 -163 -340 -325 -32 -93 -27 -238 10 -329
53 -127 151 -225 278 -278 55 -23 79 -27 169 -27 115 -1 178 14 260 62 25 14
57 27 72 28 78 6 116 91 72 159 -41 62 -151 46 -176 -26 -7 -21 -25 -37 -57
-54 -203 -102 -439 4 -505 229 -18 62 -12 160 15 221 54 123 172 210 299 220
106 8 223 -36 246 -92 16 -36 65 -73 92 -68 10 2 25 4 35 4 33 2 67 50 67 96
0 31 -7 49 -25 69 -13 14 -28 26 -32 27 -4 1 -19 2 -33 3 -14 2 -50 17 -80 34
-30 17 -79 37 -109 46 -67 19 -188 20 -258 1z m461 -131 c26 -10 37 -39 27
-67 -13 -33 -46 -43 -76 -23 -32 21 -33 60 -3 80 25 18 30 19 52 10z m8 -596
c28 -22 31 -55 9 -77 -25 -25 -48 -27 -73 -4 -22 20 -23 51 -1 75 19 21 43 23
65 6z"/>
<path d="M75 1462 c-69 -23 -93 -82 -59 -147 8 -16 17 -60 20 -96 22 -368 183
-684 476 -931 31 -26 58 -58 61 -70 7 -26 54 -58 87 -58 64 0 116 65 99 124
-11 39 -52 76 -85 76 -36 0 -98 46 -184 136 -187 196 -297 442 -316 705 -6 71
-4 91 10 110 34 49 8 129 -47 149 -33 11 -33 11 -62 2z m64 -63 c20 -22 21
-33 4 -63 -23 -41 -93 -18 -93 30 0 50 54 70 89 33z m562 -1108 c40 -50 -30
-111 -75 -65 -33 32 -8 92 36 89 11 -1 29 -12 39 -24z"/>
<path d="M2465 1080 c-44 -17 -60 -48 -60 -120 0 -61 -5 -77 -53 -173 -118
-238 -294 -413 -535 -532 -88 -44 -105 -49 -168 -49 -65 -1 -73 -4 -95 -29
-84 -97 54 -228 144 -137 17 16 56 39 88 51 321 119 604 402 734 734 13 33 36
73 52 89 35 35 38 62 17 117 -16 40 -80 66 -124 49z m68 -54 c26 -20 28 -51 6
-75 -24 -25 -46 -27 -71 -4 -22 20 -23 51 -1 75 19 21 41 23 66 4z m-865 -878
c16 -16 15 -63 0 -75 -30 -23 -49 -23 -73 2 -25 24 -25 43 -2 73 12 15 59 16
75 0z"/>
</g>
</svg>
