<svg xmlns="http://www.w3.org/2000/svg" viewBox="0 0 489.42 152.54"><defs><style>.cls-1,.cls-2{fill:#505150;}.cls-2{fill-rule:evenodd;}</style></defs><title>ilias2</title><g id="Layer_1" data-name="Layer 1"><path class="cls-1" d="M492.55,269.89a5.38,5.38,0,0,1,1.66-3.94h0a5.17,5.17,0,0,1,1.8-1.23,5.83,5.83,0,0,1,2.14-.4,5.46,5.46,0,0,1,3.94,1.63,5.37,5.37,0,0,1,1.63,3.94V287h10.51a5.32,5.32,0,0,1,3.88,1.6,5.19,5.19,0,0,1,1.17,1.77h0a5.27,5.27,0,0,1,.4,2.11,5.54,5.54,0,0,1-.4,2.09,5.07,5.07,0,0,1-1.23,1.77,5.4,5.4,0,0,1-3.83,1.51H503.72v31.66a5.55,5.55,0,0,0,1.43,4.09v0a5.18,5.18,0,0,0,1.6,1.06,4.3,4.3,0,0,0,1.86.37c.37,0,.77,0,1.23-.06s1-.09,1.57-.14h0c.66-.09,1.2-.14,1.66-.17a12.1,12.1,0,0,1,1.26-.08,5.48,5.48,0,0,1,3.54,1.37,4.73,4.73,0,0,1,1.37,1.8,5.59,5.59,0,0,1,.14,4.06,6.21,6.21,0,0,1-.89,1.66h0a5.52,5.52,0,0,1-1.51,1.31,5.8,5.8,0,0,1-1.91.63h0c-.57.09-1.08.14-1.57.2v0c-.37,0-.91.09-1.57.17s-1.11.09-1.66.11-1.17.06-1.63.06a17.08,17.08,0,0,1-3.2-.31,16,16,0,0,1-3-.91,15.08,15.08,0,0,1-2.77-1.49,15.27,15.27,0,0,1-2.34-2,14.7,14.7,0,0,1-1.94-2.46,16.77,16.77,0,0,1-1.48-2.86,17.54,17.54,0,0,1-1-3.23,20.09,20.09,0,0,1-.31-3.49ZM654.3,307a13.87,13.87,0,0,0-.69-4.57,8.93,8.93,0,0,0-2-3.23,8.7,8.7,0,0,0-3.17-2,13.53,13.53,0,0,0-4.54-.71,15.67,15.67,0,0,0-10.48,3.8v40.06a5.31,5.31,0,0,1-.43,2.14,5.87,5.87,0,0,1-3,3,5.49,5.49,0,0,1-4.25,0,5.56,5.56,0,0,1-1.83-1.23,5.1,5.1,0,0,1-1.2-1.8,5.31,5.31,0,0,1-.43-2.14V269.89a5.47,5.47,0,0,1,1.63-3.94h0a5.57,5.57,0,0,1,1.83-1.23,5.78,5.78,0,0,1,2.11-.4,5.36,5.36,0,0,1,3.94,1.63,5.29,5.29,0,0,1,1.66,3.94V288l.26-.09v0c1-.4,2.14-.77,3.26-1.09h0a24.18,24.18,0,0,1,3.43-.69,25.22,25.22,0,0,1,3.54-.26,23.48,23.48,0,0,1,8.77,1.6,22.48,22.48,0,0,1,3.68,1.91A19.55,19.55,0,0,1,659.5,292h0a19.55,19.55,0,0,1,2.57,3.17,21.16,21.16,0,0,1,1.86,3.69A23.11,23.11,0,0,1,665.1,303v0a29.25,29.25,0,0,1,.37,4.54v32.8a5.32,5.32,0,0,1-.43,2.14,5.61,5.61,0,0,1-3,3,5.49,5.49,0,0,1-4.25,0,5.61,5.61,0,0,1-3-3,5.32,5.32,0,0,1-.43-2.14Zm-78.33.54a25.92,25.92,0,0,1,.37-4.54,22.77,22.77,0,0,1,1.17-4.2,21.16,21.16,0,0,1,1.86-3.69,18.46,18.46,0,0,1,2.54-3.17h0a17.37,17.37,0,0,1,3.17-2.57h0a22.78,22.78,0,0,1,3.71-1.91,25.64,25.64,0,0,1,4.23-1.2,26.93,26.93,0,0,1,4.57-.4,32.65,32.65,0,0,1,7.68.89,33.49,33.49,0,0,1,7.28,2.57l.06,0a5.81,5.81,0,0,1,2.29,2h0a5.33,5.33,0,0,1,.8,2.91,5.12,5.12,0,0,1-1.71,3.91,6.44,6.44,0,0,1-1.8,1.09,5.59,5.59,0,0,1-2.06.37,8.46,8.46,0,0,1-1.2-.11h0a5.51,5.51,0,0,1-1.17-.37l-.11-.06c-.8-.4-1.6-.74-2.46-1.09h0c-.86-.31-1.71-.6-2.54-.83a18.72,18.72,0,0,0-2.51-.51,18.07,18.07,0,0,0-2.54-.17c-3.34,0-5.94.91-7.77,2.74s-2.71,4.4-2.71,7.77v17.8a13.6,13.6,0,0,0,.68,4.54v0a8.87,8.87,0,0,0,2,3.2c1.83,1.83,4.43,2.74,7.77,2.74a18.8,18.8,0,0,0,2.57-.17,22.68,22.68,0,0,0,2.57-.51,28,28,0,0,0,4.94-1.83,5.34,5.34,0,0,1,1.17-.43v0a5,5,0,0,1,1.29-.17,5.49,5.49,0,0,1,3.86,1.49,5,5,0,0,1,1.29,1.77,5.29,5.29,0,0,1,.43,2.11,5.2,5.2,0,0,1-3.14,5h0a34.58,34.58,0,0,1-7.28,2.57,34.23,34.23,0,0,1-7.68.86,23.85,23.85,0,0,1-8.8-1.6,22.81,22.81,0,0,1-3.71-1.91h0a18.54,18.54,0,0,1-3.17-2.54,19.53,19.53,0,0,1-2.57-3.17,21.44,21.44,0,0,1-1.86-3.71,23.12,23.12,0,0,1-1.17-4.17,26.25,26.25,0,0,1-.37-4.57Zm-38.58,12.6v4.11a13.87,13.87,0,0,0,.71,4.66,9.85,9.85,0,0,0,2.06,3.46,8.39,8.39,0,0,0,3.23,2.17,12.09,12.09,0,0,0,4.48.77,20.58,20.58,0,0,0,5.8-.8c1-.29,2-.57,2.91-.91s1.91-.74,2.83-1.14h0a5.36,5.36,0,0,1,2.26-.49,5.54,5.54,0,0,1,3.86,1.46,4.85,4.85,0,0,1,1.29,1.77h0a5.47,5.47,0,0,1-.37,5.08h0a5.21,5.21,0,0,1-2.34,2h0a32.31,32.31,0,0,1-3.88,1.66h0a30.34,30.34,0,0,1-4,1.14,38.61,38.61,0,0,1-4.11.63,41.67,41.67,0,0,1-4.23.23,23.85,23.85,0,0,1-8.8-1.6,22.77,22.77,0,0,1-3.71-1.91h0a19.1,19.1,0,0,1-5.74-5.71,21.44,21.44,0,0,1-1.86-3.71,23.19,23.19,0,0,1-1.17-4.17,29.32,29.32,0,0,1-.37-4.57V307.58a29,29,0,0,1,.37-4.54,22.84,22.84,0,0,1,1.17-4.2,21.16,21.16,0,0,1,1.86-3.69,17.3,17.3,0,0,1,2.57-3.17h0a18.35,18.35,0,0,1,3.17-2.57h0a22.74,22.74,0,0,1,3.71-1.91,25.7,25.7,0,0,1,4.23-1.2,26.94,26.94,0,0,1,4.57-.4,23.47,23.47,0,0,1,8.77,1.6,22.49,22.49,0,0,1,3.68,1.91,19.58,19.58,0,0,1,3.14,2.57h0a20.92,20.92,0,0,1,2.54,3.17,21.16,21.16,0,0,1,1.86,3.69,23.18,23.18,0,0,1,1.17,4.17v0a26.15,26.15,0,0,1,.37,4.54v5.6a6.77,6.77,0,0,1-2,5,6.68,6.68,0,0,1-2.26,1.51,7,7,0,0,1-2.68.51ZM558.26,307a13.86,13.86,0,0,0-.69-4.57,8.91,8.91,0,0,0-2-3.23,8.45,8.45,0,0,0-3.17-2,13.52,13.52,0,0,0-4.54-.71c-3.34,0-5.94.91-7.77,2.74s-2.71,4.4-2.71,7.77v2.51h20.87Z" transform="translate(-176.05 -220.98)"/></g><g id="Layer_2" data-name="Layer 2"><path class="cls-1" d="M317.07,291.49a5.52,5.52,0,0,1,.43-2.14,5.11,5.11,0,0,1,1.2-1.8,5.56,5.56,0,0,1,1.83-1.23,5.49,5.49,0,0,1,4.25,0,5.77,5.77,0,0,1,1.8,1.23h0a5.45,5.45,0,0,1,1.23,1.8,5.52,5.52,0,0,1,.43,2.14v48.89a5.29,5.29,0,0,1-1.66,3.94h0a5.47,5.47,0,0,1-3.94,1.66,5.26,5.26,0,0,1-2.11-.43,5.56,5.56,0,0,1-1.83-1.23,5.1,5.1,0,0,1-1.2-1.8,5.31,5.31,0,0,1-.43-2.14ZM457.83,318a20.14,20.14,0,0,1-3.88-2.23,21.56,21.56,0,0,1-3.37-3.09h0a12.17,12.17,0,0,1-2.48-4.51h0a18.28,18.28,0,0,1-.8-5.66,16.57,16.57,0,0,1,.4-3.6,13.2,13.2,0,0,1,1.23-3.31,15,15,0,0,1,1.86-2.83,16.76,16.76,0,0,1,5.28-4.34,20.91,20.91,0,0,1,3.28-1.37,24,24,0,0,1,7.34-1.14,35.78,35.78,0,0,1,4,.23,22.73,22.73,0,0,1,3.66.6c1.08.26,2.17.54,3.23.89v0c1,.31,2.06.71,3.06,1.11l.09,0a6.11,6.11,0,0,1,2.46,2.09h0A5.52,5.52,0,0,1,484,294a5.08,5.08,0,0,1-.43,2.11v0a5.09,5.09,0,0,1-1.31,1.71,5.24,5.24,0,0,1-1.8,1.06,5.9,5.9,0,0,1-2,.34,5,5,0,0,1-1.11-.14h0a7.13,7.13,0,0,1-1-.34l-.09,0a20.21,20.21,0,0,0-4.91-1.63h0a26.21,26.21,0,0,0-5.48-.57,10.94,10.94,0,0,0-2.74.37h0a7.47,7.47,0,0,0-1.29.46,7.19,7.19,0,0,0-1.14.6,4.44,4.44,0,0,0-.88.71,5.18,5.18,0,0,0-.74,1,6.1,6.1,0,0,0-.43,1.09,7.39,7.39,0,0,0-.14,1.46,7.05,7.05,0,0,0,.31,2.2,3.38,3.38,0,0,0,.89,1.4,11.73,11.73,0,0,0,1.51,1.29l0,0a8.33,8.33,0,0,0,1.43.83h0l10.17,4.09a21.48,21.48,0,0,1,4.8,2.63,19,19,0,0,1,3.8,3.63,15.49,15.49,0,0,1,2.54,4.6,16.15,16.15,0,0,1,.86,5.29,18.78,18.78,0,0,1-.37,3.6v0a19.66,19.66,0,0,1-1.08,3.4h0a16.92,16.92,0,0,1-1.74,3.06,16.72,16.72,0,0,1-2.31,2.63,19.55,19.55,0,0,1-2.83,2.17,20.6,20.6,0,0,1-3.28,1.63h0a18.64,18.64,0,0,1-3.66,1,22.06,22.06,0,0,1-3.88.34,40.23,40.23,0,0,1-4.2-.23,29.87,29.87,0,0,1-3.88-.63,28.71,28.71,0,0,1-3.57-1.06h0a32.16,32.16,0,0,1-3.37-1.4,5.4,5.4,0,0,1-2.46-2,5.62,5.62,0,0,1-.83-3.06,5.29,5.29,0,0,1,3.46-5,6.44,6.44,0,0,1,2.11-.37,5.6,5.6,0,0,1,.69.06h0a2.43,2.43,0,0,1,.69.17c.26.09.57.23,1,.4a26.54,26.54,0,0,0,2.48,1h0c.86.31,1.74.6,2.63.83a19,19,0,0,0,2.71.51,23.35,23.35,0,0,0,2.88.17,10,10,0,0,0,3-.43,8.93,8.93,0,0,0,2.6-1.31,4.78,4.78,0,0,0,1.57-1.83,5.28,5.28,0,0,0,.54-2.51,8.23,8.23,0,0,0-.34-2.51,4.49,4.49,0,0,0-.89-1.63,7.43,7.43,0,0,0-1.71-1.49h0a18,18,0,0,0-2.68-1.46h0L457.86,318ZM439,336.61a6.56,6.56,0,0,1-1.37,4.06,7.47,7.47,0,0,1-1.49,1.51,7.33,7.33,0,0,1-1.88,1l0,0c-1.4.46-2.74.86-4.05,1.17s-2.77.66-4.17.89a42.31,42.31,0,0,1-4.25.54,42.93,42.93,0,0,1-4.31.2,31.33,31.33,0,0,1-9.22-1.26,18.26,18.26,0,0,1-7-3.89,15.11,15.11,0,0,1-4.08-5.8,20.6,20.6,0,0,1-1.31-7.6,20.3,20.3,0,0,1,1.31-7.49,16.41,16.41,0,0,1,4-5.89l0,0a15.94,15.94,0,0,1,3.2-2.23,18.05,18.05,0,0,1,3.83-1.49,27.56,27.56,0,0,1,4.37-.83,44.13,44.13,0,0,1,4.88-.26h10.39v-4.92a9.14,9.14,0,0,0-.63-3.49h0a5.82,5.82,0,0,0-1.77-2.29,8.67,8.67,0,0,0-3-1.49,14,14,0,0,0-4.14-.54,20,20,0,0,0-5.71.83,27.18,27.18,0,0,0-2.83,1.08c-.94.43-1.91.92-2.91,1.49h0a5.63,5.63,0,0,1-1.26.6h0a4.82,4.82,0,0,1-1.43.23,5.92,5.92,0,0,1-2-.34,6,6,0,0,1-1.8-1h0a5.05,5.05,0,0,1-1.31-1.8,5.6,5.6,0,0,1-.43-2.2,5.34,5.34,0,0,1,.71-2.77,5.51,5.51,0,0,1,2-2.06v0a30.3,30.3,0,0,1,4.14-2.17h0a27.22,27.22,0,0,1,4.31-1.43h0a37.84,37.84,0,0,1,4.31-.77,35.32,35.32,0,0,1,4.23-.26,26.55,26.55,0,0,1,7.74,1.11h0a21,21,0,0,1,3.51,1.43h0a17.27,17.27,0,0,1,3.08,2,14.15,14.15,0,0,1,2.63,2.6h0a17.62,17.62,0,0,1,2,3.17,17.94,17.94,0,0,1,1.71,8Zm-11.17-16.77H417.48a18.42,18.42,0,0,0-6,.77h0a9.88,9.88,0,0,0-1.83.83,6.71,6.71,0,0,0-1.17.92h0a5.43,5.43,0,0,0-.77,1.08,4.5,4.5,0,0,0-.43,1.11,13,13,0,0,0-.26,1.46,11.92,11.92,0,0,0,0,2.86,15.26,15.26,0,0,0,.26,1.51,4.11,4.11,0,0,0,.43,1.17h0a6,6,0,0,0,.8,1.14h0a5.7,5.7,0,0,0,1.17,1,9,9,0,0,0,1.83.89,12.93,12.93,0,0,0,2.51.6,29.16,29.16,0,0,0,3.43.2A40,40,0,0,0,427.87,334Zm-52.66-28.34a5.52,5.52,0,0,1,.43-2.14,5.1,5.1,0,0,1,1.2-1.8,5.57,5.57,0,0,1,1.83-1.23,5.49,5.49,0,0,1,4.26,0,5.76,5.76,0,0,1,1.8,1.23h0a5.46,5.46,0,0,1,1.23,1.8,5.52,5.52,0,0,1,.43,2.14v48.89a5.29,5.29,0,0,1-1.66,3.94h0a5.48,5.48,0,0,1-6.05,1.23,5.56,5.56,0,0,1-1.83-1.23,5.1,5.1,0,0,1-1.2-1.8,5.32,5.32,0,0,1-.43-2.14Zm-37.52-21.6a5.47,5.47,0,0,1,1.63-3.94h0a5.76,5.76,0,0,1,1.8-1.23,6.06,6.06,0,0,1,2.14-.4,5.61,5.61,0,0,1,5.6,5.57v65H361.3a5.28,5.28,0,0,1,2.11.43,5.38,5.38,0,0,1,3,3,5.5,5.5,0,0,1,0,4.26,5.67,5.67,0,0,1-1.2,1.8h0a5.56,5.56,0,0,1-1.83,1.23,5.27,5.27,0,0,1-2.11.43h-18a5.29,5.29,0,0,1-3.94-1.66h0a5.77,5.77,0,0,1-1.23-1.8,5.84,5.84,0,0,1-.4-2.14v0h0V269.89Z" transform="translate(-176.05 -220.98)"/></g><g id="Layer_3" data-name="Layer 3"><path class="cls-2" d="M200.61,320.29a25.22,25.22,0,0,1,.66-5.43s1.74-1.31.63-2.37-1.29-3.91-1.29-3.91l-2-2.17a14.22,14.22,0,0,1-1.71-3.26,6.36,6.36,0,0,1,.2-2.83c.23-1.08-.43-3-.43-4.11,6.94-19.54,21.48-24.46,21.7-24.54l1.09,4.57a8.42,8.42,0,0,1-3.68.23,7,7,0,0,0-1.94-.43l-1.74,2.37a22,22,0,0,0-.89,2.4,4.12,4.12,0,0,0,.43,2.14s3.06.23,3.06-.63a1.92,1.92,0,0,0-.43-1.31l-.43-1.51s1.94-1.09,7.14-.66,3.28,4.11,5.43,5-1.74,3.91-2.6,5.63-2.17-2.17-2.17-2.17,1.31-1.49-.86-1.94c-1.74-.34-3,2.4-2.88,3.37a4.46,4.46,0,0,0-1.29.4h0c-.29.14-.51.29-.74.43h0a6,6,0,0,0-.63.57h0a3.71,3.71,0,0,0-.51.66,4.75,4.75,0,0,0-.37.77,4.33,4.33,0,0,0,1.11,4.83l1.4,1.29a10.55,10.55,0,0,1-1.31,1.17s-1.09-.69-.46.63-.2,4.34-.2,5.2-2.63-1.51-3-3.69-3-.29-3.85-.06a2.8,2.8,0,0,1-2.88-1.46c-.43-1.09-4.34,2.17-5.43,2.83s-.66,2.37,1.08,1.51,3.26-.23,2.83,1.51-2.17.66-2,1.74,2,2.17,2.4,3.69,4.57.23,5.85-.43,5-1.31,5.43.43,4.57,2.4,6.08,2.83,4.54.66,6.31,2.37-1.31,5-1.54,6.11a34,34,0,0,1-2.37,5.4,8,8,0,0,1-2.4,3.26,7.31,7.31,0,0,0-1.74,2.4l-.2,3.69a16.27,16.27,0,0,0,1.08,4.14c.63,1.06-2.34,7.54-2.34,7.54-1.88-.37-2.91-2.57-3.57-4.29s-1.51-2.69-1.31-4.63-1.68-3-2.31-4.06a9.14,9.14,0,0,1-1.54-3.71c0-1.09-2.37-2.6-2.37-2.6s-4.34-1.94-5-2.83-1.31-4.57-1.54-6.09Zm45.63-1.51c0-19.14,14.65-4.71,14.65-4.71,8.37,5.57,9.48-4.6,9.48-4.6l6.11-2.23.57-2.8-.89-3.89-8.91-3.66a8.29,8.29,0,0,0,1.43,6.43s-.77,4.06-2.63,3l-5.17-2.6s-1.74-.74-4.51.94c-1.6.94-3.8.8-5.43.49l11.19-11.86a3.87,3.87,0,0,0,3.2,1.11c3.34-.54,1.68-1.11,3.91-2.23s3.88,2.23,3.88,2.23l4.46.57s-.09-3.91-.06-5c3.11,4.66,5.83,14.43,5.31,21.34-.91-.4-1.88-.74-1.88-.74h-5.6l3.34,3.91s1.63,2.37,3.91,2.2c-1.51,17.49-16.08,28.71-16.08,28.71-2.23-2.23-1.11-4.17-1.11-4.17l.63-3.37.34-5.63s0-5.86-5.57-3.06c-6,1.51-3.48,1.51-9.54,1.94s-5.05-12.34-5.05-12.34Zm10.51-39,3.48-2.31s-1.46-3.74-1.23-5.57c.86-.11,4.25,1.8,7.14,4.43a14.37,14.37,0,0,1-.77,2.23,4.87,4.87,0,0,0-2.4.94l-.66.69-2,2.11-.4.43a.89.89,0,0,1-.26,0s-3.34-.09-2.91-2.91Zm-28.41-8.43c4.63-4.29,12-3.4,12.51-2.4-1.29,2.17-3.31,1.46-3.54,3.63s-3.68,5-3.26,5.86,0,4.57-3,1.31-6.08-4.37-5.85-6.54c0-.43,3.14-1.11,3.17-1.86Z" transform="translate(-176.05 -220.98)"/></g><g id="Layer_4" data-name="Layer 4"><path class="cls-1" d="M243.33,248.46a62.57,62.57,0,1,1-9.37,0A15.61,15.61,0,0,1,228,245a13.44,13.44,0,0,1,0-19.94,15.77,15.77,0,0,1,21.25,0,13.44,13.44,0,0,1,0,19.94,15.6,15.6,0,0,1-5.94,3.43Zm33.53,24.34h0a1.72,1.72,0,0,1,0,2.4h0a1.72,1.72,0,0,1-2.4,0h0a1.72,1.72,0,0,1,0-2.4h0a1.72,1.72,0,0,1,2.4,0Zm-74.13,2.29h0a1.72,1.72,0,0,1-2.4,0h0a1.79,1.79,0,0,1-.49-1.2,1.74,1.74,0,0,1,.49-1.2h0a1.66,1.66,0,0,1,2.4,0h0a1.62,1.62,0,0,1,.49,1.2h0a1.66,1.66,0,0,1-.49,1.2Zm.11,71.77h0a1.73,1.73,0,0,1,0,2.4h0a1.78,1.78,0,0,1-1.2.49h0a1.7,1.7,0,0,1-1.2-2.89h0a1.66,1.66,0,0,1,1.2-.49h0a1.73,1.73,0,0,1,1.2.49Zm74,2.34h0a1.69,1.69,0,0,1-1.2.51h0a1.64,1.64,0,0,1-1.2-.51h0a1.57,1.57,0,0,1-.49-1.2,1.56,1.56,0,0,1,.49-1.17v0h0a1.72,1.72,0,0,1,2.4,0h0a1.79,1.79,0,0,1,.49,1.2,1.68,1.68,0,0,1-.49,1.2Zm-38.24-82.51a44.32,44.32,0,1,0,31.27,13,44.13,44.13,0,0,0-31.27-13Zm-34.41,9.83A48.61,48.61,0,1,1,189.87,311a48.46,48.46,0,0,1,14.31-34.46Zm33.87,33.34-.14.09h0a.62.62,0,0,0-.14.09c-.06,0-.09.09-.14.11l-.2.2-.14.29a1.63,1.63,0,0,0-.11.63,1.33,1.33,0,0,0,.14.6h0a1.55,1.55,0,0,0,.86.69h0a1.43,1.43,0,0,0,1.08-.08l.14-.09a1.38,1.38,0,0,0,.69-.86,1.36,1.36,0,0,0-.09-1.06h0l-.14-.26-.23-.2a1.49,1.49,0,0,0-.77-.29,1.54,1.54,0,0,0-.8.14Zm-1.37-3a5,5,0,0,1,2.46-.46,7.42,7.42,0,0,1,1.14.26l21.65-22.89,2-2.11h0a2.08,2.08,0,0,1,2.46-.54h0a2.34,2.34,0,0,1,.71.46,2.24,2.24,0,0,1,.11,3.17h0l-23.9,25.29a4.7,4.7,0,0,1-2.37,5.2l-.14.09a4.62,4.62,0,0,1-3.57.34h0a4.57,4.57,0,0,1-2.8-2.26h0a4.9,4.9,0,0,1-.54-2.06,4.47,4.47,0,0,1,.06-.89L217,294.78a2.14,2.14,0,0,1-.57-2.43,2.73,2.73,0,0,1,.46-.74,2.29,2.29,0,0,1,3.2-.14Zm-54,1.77h3.94a2.06,2.06,0,0,1,2,1.37,2.32,2.32,0,0,1,.17.89,2.3,2.3,0,0,1-.17.86,2.06,2.06,0,0,1-2,1.37h-3.94a56,56,0,0,0,53.75,53.74v-4.06a2.1,2.1,0,0,1,1.34-2,2.37,2.37,0,0,1,1.77,0,2.1,2.1,0,0,1,1.34,2v4.06a56,56,0,0,0,53.74-53.74h-4.08a2.06,2.06,0,0,1-2-1.37,2.31,2.31,0,0,1-.17-.86,2.34,2.34,0,0,1,.17-.89,2.06,2.06,0,0,1,2-1.37h4.08a56,56,0,0,0-53.74-53.74v3.94a2.08,2.08,0,0,1-1.34,2,2.37,2.37,0,0,1-1.77,0,2.08,2.08,0,0,1-1.34-2v-3.94a56,56,0,0,0-53.75,53.74Zm62.68-70.14c0,.23-.29.43-.6.43h-3.63v6.11a11.55,11.55,0,0,0,5.45-2.77,9.6,9.6,0,0,0,0-14.46,12,12,0,0,0-15.88,0,9.6,9.6,0,0,0,0,14.46,11.48,11.48,0,0,0,5.23,2.71v-6.06h-3.63c-.31,0-.6-.2-.6-.43v-4.83c0-.23.29-.43.6-.43h12.45c.31,0,.6.2.6.43Z" transform="translate(-176.05 -220.98)"/></g></svg>