<svg id="Layer_1" data-name="Layer 1" xmlns="http://www.w3.org/2000/svg" xmlns:xlink="http://www.w3.org/1999/xlink" viewBox="0 0 400 154.32">
  <defs>
    <style>
      .cls-1 {
        fill: url(#linear-gradient);
      }

      .cls-2 {
        fill: url(#linear-gradient-2);
      }

      .cls-3 {
        fill: #cc1c8e;
      }
    </style>
    <linearGradient id="linear-gradient" x1="778.45" y1="1166.67" x2="923.72" y2="1212.75" gradientUnits="userSpaceOnUse">
      <stop offset="0" stop-color="#3564af"/>
      <stop offset="0.08" stop-color="#2979b4"/>
      <stop offset="0.24" stop-color="#0bb0c1"/>
      <stop offset="0.27" stop-color="#05bcc4"/>
      <stop offset="0.49" stop-color="#11a3d3"/>
      <stop offset="0.55" stop-color="#159cd8"/>
      <stop offset="0.6" stop-color="#2690d1"/>
      <stop offset="0.72" stop-color="#5172c0"/>
      <stop offset="0.87" stop-color="#9642a4"/>
      <stop offset="0.99" stop-color="#cc1c8e"/>
    </linearGradient>
    <linearGradient id="linear-gradient-2" x1="949.38" y1="1163.58" x2="1172.29" y2="1163.58" gradientUnits="userSpaceOnUse">
      <stop offset="0" stop-color="#3564af"/>
      <stop offset="0.5" stop-color="#159cd8"/>
      <stop offset="1" stop-color="#05bcc4"/>
    </linearGradient>
  </defs>
  <title>bw_logo</title>
  <path class="cls-1" d="M869.2,1201.44a5.91,5.91,0,0,0-5.88,5.32h0a21.21,21.21,0,1,1,0-33.95,5.91,5.91,0,1,0,4.77-6.27,29.09,29.09,0,1,0-.14,46.59,5.91,5.91,0,1,0,1.26-11.68Zm3.28-29.11a3.28,3.28,0,1,1-3.28-3.28A3.28,3.28,0,0,1,872.48,1172.32Zm-3.28,38.3a3.28,3.28,0,1,1,3.28-3.28A3.28,3.28,0,0,1,869.2,1210.63Zm18.67-58.13a52.73,52.73,0,0,0-65.33-7.36,5.91,5.91,0,1,0,3.51,7.11,44.84,44.84,0,1,1-20.28,37.67h0V1137a5.91,5.91,0,1,0-7.88,0v52.79h0v.08h0a52.71,52.71,0,1,0,90-37.42Zm-67.51,1.41a3.28,3.28,0,1,1,3.28-3.28A3.28,3.28,0,0,1,820.36,1153.92Zm-18.54-24.56a3.28,3.28,0,1,1-3.28,3.28A3.28,3.28,0,0,1,801.82,1129.36Zm110.52,15.52a76.24,76.24,0,0,0-61.75-31.45v.08a5.91,5.91,0,1,0,0,7.79A68.37,68.37,0,0,1,906,1149.49a5.91,5.91,0,1,0,6.39-4.61Zm-66.17-24.17a3.28,3.28,0,1,1,3.28-3.28A3.28,3.28,0,0,1,846.17,1120.71ZM911.73,1154a3.28,3.28,0,1,1,3.28-3.28A3.28,3.28,0,0,1,911.73,1154Zm15,53.91a5.91,5.91,0,1,0-11,3,68.63,68.63,0,0,1-43.78,43.9,5.91,5.91,0,1,0,2.4,7.5,76.53,76.53,0,0,0,48.88-49A5.91,5.91,0,0,0,926.73,1207.95ZM869,1263.22a3.28,3.28,0,1,1,3.28-3.28A3.28,3.28,0,0,1,869,1263.22Zm51.86-52a3.28,3.28,0,1,1,3.28-3.28A3.28,3.28,0,0,1,920.82,1211.23Zm-109.3,33.71a5.92,5.92,0,0,0-1.28.14,68.37,68.37,0,0,1-28.1-55.31v0a5.91,5.91,0,1,0-7.88,0v0a76.24,76.24,0,0,0,31.39,61.71,5.91,5.91,0,1,0,5.87-6.54Zm-33.32-56.31a3.3,3.3,0,0,1-.55,0l-.39-.09h-.07a3.26,3.26,0,0,1-.41-.16l0,0a3.29,3.29,0,0,1-.75-.51l0,0-.07-.07a3.28,3.28,0,1,1,4.64-4.64h0l.09.09,0,0,.09.11h0l.09.11h0l.05.08,0,.05.08.13h0l.05.09,0,0,.05.1,0,0,.06.14h0q.06.14.11.29h0l0,.08c0,.08,0,.15.06.23h0l0,.16a3.28,3.28,0,0,1-3.25,3.77Zm33.32,65.5a3.27,3.27,0,0,1-2.32-1h0l-.09-.09,0,0-.1-.11h0l-.1-.12h0l-.08-.12h0a3.28,3.28,0,0,1-.21-.37l0,0-.06-.14h0c0-.09-.07-.18-.1-.27v0c0-.08,0-.16-.07-.25l0-.07a3.28,3.28,0,0,1,3.88-3.88l.07,0,.25.07h0l.27.1h0a3.28,3.28,0,0,1-1.28,6.31Z" transform="translate(-772.29 -1111.52)"/>
  <g>
    <path class="cls-2" d="M958.61,1189.1h-9.22v-51h9.22v18.24a15.82,15.82,0,0,1,11.58-5c9.5,0,17.41,7.91,17.41,19.42,0,11.31-8.25,19.35-17.62,19.35-4.65,0-8-1.66-11.37-4.85Zm-.42-18.52c0,6.66,4.44,11,10.13,11s10-4.65,10-11c0-6-3.88-10.89-10-10.89C962.42,1159.77,958.19,1164.14,958.19,1170.59Zm46.54-27.4a5.89,5.89,0,0,1-5.9,5.9,6.14,6.14,0,0,1-5.9-6.38,5.75,5.75,0,0,1,5.9-5.62A6,6,0,0,1,1004.73,1143.19Zm-10.47,9.09h9.22v36.83h-9.22Zm18.66-13.59h9.22v13.59h5.48v7.91h-5.48v28.92h-9.22v-28.92h-4.72v-7.91h4.72Zm15.6,13.59h9.09l7.35,20.95,8-20.95h5.55l7.84,20.67,7.42-20.67h9.09l-13.39,36.83h-5.9l-7.84-21-8.11,21h-5.76Zm69.15-9.09a5.89,5.89,0,0,1-5.9,5.9,6.14,6.14,0,0,1-5.9-6.38,5.75,5.75,0,0,1,5.9-5.62A6,6,0,0,1,1097.66,1143.19Zm-10.47,9.09h9.22v36.83h-9.22Zm24.9,20.88c-5.9-3-8.88-6.59-8.88-11.24,0-5.76,4.85-10.61,11.93-10.61a15,15,0,0,1,12.14,6.1l-5.69,5.76c-2.08-2.08-4.16-3.4-6.38-3.4-1.87,0-3.33.76-3.33,2.22s1.32,2,3.33,3.05l3.4,1.73c6.1,3.12,9.36,6.31,9.36,11.79,0,6.59-5.2,11.51-13.25,11.51a15.56,15.56,0,0,1-12.9-6.31l5.69-6.24c2.15,2.5,5.27,4.3,7.7,4.3s4.09-1.32,4.09-3-1.53-2.77-4.09-4.09Zm57.7,8.81c-4,5.62-9.15,8.11-16.92,8.11-11.72,0-19.28-8.6-19.28-19.42,0-10.06,7.28-19.35,19.14-19.35,11.65,0,19.56,8.32,19.56,20,0,.83-.07,1.25-.07,2.08h-29.68c.9,5.48,5.06,8.53,10.33,8.53a11.92,11.92,0,0,0,9.16-3.61Zm-6.8-15.88c-1.25-4.3-5.2-6.94-10.13-6.94-4.58,0-8.11,2.29-9.92,6.94Z" transform="translate(-772.29 -1111.52)"/>
    <g>
      <path class="cls-3" d="M980.16,1233.45c-3,4.49-8.08,6.83-14.17,6.83-10,0-16.61-7.17-16.61-15.59,0-8.87,6.94-16.16,16.9-16.16,5.8,0,11.09,2.39,13.88,7.05l-3.13,1.93a13,13,0,0,0-10.92-5.23c-7.68,0-12.74,5.63-12.74,12.12s5,12.35,12.8,12.35a13.39,13.39,0,0,0,10.87-5.29Z" transform="translate(-772.29 -1111.52)"/>
      <path class="cls-3" d="M990.17,1213.71c2.28-3.3,4.72-5.18,7.79-5.18a6.12,6.12,0,0,1,3.47,1l-2,3.3a4.63,4.63,0,0,0-2-.57c-2.84,0-5.4,2.45-6.54,6.6a41.54,41.54,0,0,0-.63,9.16v11.49h-4.1v-30.21h4.1Z" transform="translate(-772.29 -1111.52)"/>
      <path class="cls-3" d="M1007.07,1224.75c.17,6.94,4.89,12,11.38,12,6.31,0,9.33-3.58,11.55-7.22l3.24,1.71c-3.07,6-7.79,9-14.39,9-10,0-15.76-7.68-15.76-15.76,0-8.25,6.09-16,15.53-16,8.59,0,15.53,6.2,15.64,16.21Zm22.93-3.41c-1.59-6.26-6.09-9-11.32-9-5.4,0-9.44,2.9-11.21,9Z" transform="translate(-772.29 -1111.52)"/>
      <path class="cls-3" d="M1067.77,1209.33h3.81v30.21h-3.81v-5.18a15.31,15.31,0,0,1-12.17,5.92,15.88,15.88,0,0,1,.11-31.74,14.29,14.29,0,0,1,12.06,6.31Zm-23.67,15.13a12.12,12.12,0,0,0,11.89,12.29,12.24,12.24,0,1,0-11.89-12.29Z" transform="translate(-772.29 -1111.52)"/>
      <path class="cls-3" d="M1083.82,1198.07h3.87v11.26h6.2v3.41h-6.2v26.79h-3.87v-26.79h-5.35v-3.41h5.35Z" transform="translate(-772.29 -1111.52)"/>
      <path class="cls-3" d="M1104.24,1200.06a3.28,3.28,0,0,1-3.24,3.24,3.23,3.23,0,0,1-3.19-3.24,3.18,3.18,0,0,1,3.19-3.19A3.23,3.23,0,0,1,1104.24,1200.06Zm-5.12,9.27H1103v30.21h-3.87Z" transform="translate(-772.29 -1111.52)"/>
      <path class="cls-3" d="M1108.17,1209.33h4.15l10.13,22,10-22h4.15l-13.82,30.21h-.68Z" transform="translate(-772.29 -1111.52)"/>
      <path class="cls-3" d="M1145.09,1224.75c.17,6.94,4.89,12,11.38,12,6.31,0,9.33-3.58,11.55-7.22l3.24,1.71c-3.07,6-7.79,9-14.39,9-10,0-15.76-7.68-15.76-15.76,0-8.25,6.09-16,15.53-16,8.59,0,15.53,6.2,15.64,16.21Zm22.93-3.41c-1.59-6.26-6.09-9-11.32-9-5.4,0-9.44,2.9-11.21,9Z" transform="translate(-772.29 -1111.52)"/>
    </g>
  </g>
</svg>
