<?xml version="1.0" encoding="utf-8"?>
<!-- Generator: Adobe Illustrator 21.1.0, SVG Export Plug-In . SVG Version: 6.00 Build 0)  -->
<svg version="1.1" xmlns="http://www.w3.org/2000/svg" xmlns:xlink="http://www.w3.org/1999/xlink" x="0px" y="0px"
	 viewBox="0 0 841.9 595.3" style="enable-background:new 0 0 841.9 595.3;" xml:space="preserve">
<style type="text/css">
	.st0{fill:#505150;}
	.st1{fill-rule:evenodd;clip-rule:evenodd;fill:#505150;}
</style>
<g id="Layer_1">
	<path class="st0" d="M492.6,269.9c0-1.5,0.5-2.8,1.7-3.9l0,0c0.5-0.5,1.1-0.9,1.8-1.2c0.7-0.3,1.4-0.4,2.1-0.4
		c1.5,0,2.8,0.5,3.9,1.6c1.1,1.1,1.6,2.4,1.6,3.9V287h10.5c1.5,0,2.8,0.5,3.9,1.6c0.5,0.5,0.9,1.1,1.2,1.8l0,0
		c0.3,0.7,0.4,1.4,0.4,2.1c0,0.7-0.1,1.5-0.4,2.1c-0.3,0.7-0.7,1.3-1.2,1.8c-1.1,1-2.3,1.5-3.8,1.5h-10.5v31.7
		c0,1.8,0.5,3.1,1.4,4.1v0c0.5,0.5,1,0.8,1.6,1.1c0.5,0.3,1.2,0.4,1.9,0.4c0.4,0,0.8,0,1.2-0.1c0.5,0,1-0.1,1.6-0.1l0,0
		c0.7-0.1,1.2-0.1,1.7-0.2c0.5-0.1,0.9-0.1,1.3-0.1c1.3,0,2.4,0.5,3.5,1.4c0.6,0.5,1.1,1.1,1.4,1.8c0.3,0.7,0.5,1.4,0.5,2.2
		c0,0.7-0.1,1.3-0.3,1.9c-0.2,0.6-0.5,1.1-0.9,1.7h0c-0.4,0.5-0.9,1-1.5,1.3c-0.6,0.3-1.2,0.5-1.9,0.6l0,0c-0.6,0.1-1.1,0.1-1.6,0.2
		v0c-0.4,0-0.9,0.1-1.6,0.2c-0.6,0.1-1.1,0.1-1.7,0.1c-0.6,0-1.2,0.1-1.6,0.1c-1.1,0-2.1-0.1-3.2-0.3c-1-0.2-2.1-0.5-3-0.9
		c-1-0.4-1.9-0.9-2.8-1.5c-0.8-0.6-1.6-1.2-2.3-2c-0.7-0.7-1.4-1.6-1.9-2.5c-0.6-0.9-1.1-1.8-1.5-2.9c-0.4-1-0.7-2.1-1-3.2
		c-0.2-1.1-0.3-2.3-0.3-3.5V269.9z M654.3,307c0-1.7-0.2-3.3-0.7-4.6c-0.5-1.3-1.1-2.3-2-3.2c-0.9-0.9-1.9-1.5-3.2-2
		c-1.3-0.5-2.8-0.7-4.5-0.7c-4,0-7.5,1.3-10.5,3.8v40.1c0,0.8-0.1,1.5-0.4,2.1c-0.3,0.7-0.7,1.3-1.2,1.8c-0.5,0.5-1.1,0.9-1.8,1.2
		c-0.7,0.3-1.4,0.4-2.1,0.4c-0.7,0-1.5-0.1-2.1-0.4c-0.7-0.3-1.3-0.7-1.8-1.2c-0.5-0.5-0.9-1.1-1.2-1.8c-0.3-0.7-0.4-1.4-0.4-2.1
		v-70.5c0-1.5,0.5-2.8,1.6-3.9l0,0c0.5-0.5,1.1-0.9,1.8-1.2c0.7-0.3,1.4-0.4,2.1-0.4c1.5,0,2.9,0.5,3.9,1.6c1.1,1.1,1.7,2.4,1.7,3.9
		V288l0.3-0.1v0c1-0.4,2.1-0.8,3.3-1.1l0,0c1.1-0.3,2.3-0.5,3.4-0.7c1.2-0.2,2.4-0.3,3.5-0.3c3.2,0,6.1,0.5,8.8,1.6
		c1.3,0.5,2.5,1.2,3.7,1.9c1.1,0.8,2.2,1.6,3.1,2.6l0,0c1,1,1.8,2,2.6,3.2c0.7,1.1,1.3,2.4,1.9,3.7c0.5,1.3,0.9,2.7,1.2,4.2v0
		c0.2,1.5,0.4,3,0.4,4.5v32.8c0,0.8-0.1,1.5-0.4,2.1c-0.3,0.7-0.7,1.3-1.2,1.8c-0.5,0.5-1.1,0.9-1.8,1.2c-0.7,0.3-1.4,0.4-2.1,0.4
		c-0.7,0-1.5-0.1-2.1-0.4c-0.7-0.3-1.3-0.7-1.8-1.2c-0.5-0.5-0.9-1.1-1.2-1.8c-0.3-0.7-0.4-1.4-0.4-2.1V307z M576,307.6
		c0-1.6,0.1-3.1,0.4-4.5c0.3-1.5,0.7-2.9,1.2-4.2c0.5-1.3,1.1-2.6,1.9-3.7c0.7-1.2,1.6-2.2,2.5-3.2h0c0.9-1,2-1.8,3.2-2.6l0,0
		c1.1-0.7,2.4-1.4,3.7-1.9c1.3-0.5,2.8-0.9,4.2-1.2c1.5-0.3,3-0.4,4.6-0.4c2.6,0,5.2,0.3,7.7,0.9c2.5,0.6,4.9,1.4,7.3,2.6l0.1,0
		c1,0.5,1.7,1.2,2.3,2l0,0c0.5,0.9,0.8,1.8,0.8,2.9c0,0.7-0.1,1.5-0.4,2.1c-0.3,0.7-0.7,1.3-1.3,1.8c-0.5,0.5-1.1,0.8-1.8,1.1
		c-0.7,0.3-1.3,0.4-2.1,0.4c-0.4,0-0.8-0.1-1.2-0.1l0,0c-0.4-0.1-0.8-0.2-1.2-0.4l-0.1-0.1c-0.8-0.4-1.6-0.7-2.5-1.1l0,0
		c-0.9-0.3-1.7-0.6-2.5-0.8c-0.8-0.2-1.7-0.4-2.5-0.5c-0.8-0.1-1.7-0.2-2.5-0.2c-3.3,0-5.9,0.9-7.8,2.7c-1.8,1.8-2.7,4.4-2.7,7.8
		v17.8c0,1.7,0.2,3.3,0.7,4.5v0c0.5,1.2,1.1,2.3,2,3.2c1.8,1.8,4.4,2.7,7.8,2.7c0.9,0,1.7-0.1,2.6-0.2c0.8-0.1,1.7-0.3,2.6-0.5
		c1.8-0.5,3.4-1.1,4.9-1.8c0.4-0.2,0.8-0.3,1.2-0.4v0c0.4-0.1,0.9-0.2,1.3-0.2c1.5,0,2.8,0.5,3.9,1.5c0.5,0.5,1,1.1,1.3,1.8
		c0.3,0.7,0.4,1.4,0.4,2.1c0,1.1-0.3,2.1-0.8,3c-0.5,0.9-1.3,1.5-2.3,2l0,0c-2.4,1.1-4.8,2-7.3,2.6c-2.5,0.6-5.1,0.9-7.7,0.9
		c-3.2,0-6.1-0.5-8.8-1.6c-1.3-0.5-2.6-1.2-3.7-1.9l0,0c-1.2-0.7-2.2-1.6-3.2-2.5c-1-1-1.8-2-2.6-3.2c-0.7-1.1-1.3-2.4-1.9-3.7
		c-0.5-1.3-0.9-2.7-1.2-4.2c-0.3-1.5-0.4-3-0.4-4.6V307.6z M537.4,320.2v4.1c0,1.7,0.2,3.3,0.7,4.7c0.5,1.3,1.1,2.5,2.1,3.5
		c0.9,1,2,1.7,3.2,2.2c1.3,0.5,2.8,0.8,4.5,0.8c2,0,3.9-0.3,5.8-0.8c1-0.3,2-0.6,2.9-0.9c1-0.3,1.9-0.7,2.8-1.1h0
		c0.7-0.3,1.5-0.5,2.3-0.5c1.5,0,2.8,0.5,3.9,1.5c0.6,0.5,1,1.1,1.3,1.8l0,0c0.3,0.7,0.5,1.4,0.5,2.1c0,1.1-0.3,2.1-0.8,2.9l0,0
		c-0.5,0.9-1.3,1.5-2.3,2l0,0c-1.3,0.7-2.6,1.2-3.9,1.7l0,0c-1.3,0.5-2.7,0.9-4,1.1c-1.3,0.3-2.7,0.5-4.1,0.6
		c-1.4,0.1-2.8,0.2-4.2,0.2c-3.2,0-6.1-0.5-8.8-1.6c-1.3-0.5-2.6-1.2-3.7-1.9l0,0c-1.1-0.7-2.2-1.6-3.2-2.5c-1-1-1.8-2-2.6-3.2
		c-0.7-1.1-1.3-2.4-1.9-3.7c-0.5-1.3-0.9-2.7-1.2-4.2c-0.2-1.5-0.4-3-0.4-4.6v-16.7c0-1.6,0.1-3.1,0.4-4.5c0.3-1.5,0.7-2.9,1.2-4.2
		c0.5-1.3,1.1-2.6,1.9-3.7c0.7-1.2,1.6-2.2,2.6-3.2l0,0c0.9-1,2-1.8,3.2-2.6l0,0c1.1-0.7,2.4-1.4,3.7-1.9c1.3-0.5,2.8-0.9,4.2-1.2
		c1.5-0.3,3-0.4,4.6-0.4c3.2,0,6.1,0.5,8.8,1.6c1.3,0.5,2.5,1.2,3.7,1.9c1.1,0.8,2.2,1.6,3.1,2.6h0c0.9,1,1.8,2,2.5,3.2
		c0.7,1.1,1.3,2.4,1.9,3.7c0.5,1.3,0.9,2.7,1.2,4.2v0c0.3,1.5,0.4,3,0.4,4.5v5.6c0,2-0.7,3.6-2,5c-0.7,0.7-1.4,1.2-2.3,1.5
		c-0.8,0.3-1.7,0.5-2.7,0.5H537.4z M558.3,307c0-1.7-0.2-3.3-0.7-4.6c-0.5-1.3-1.1-2.3-2-3.2c-0.9-0.9-1.9-1.5-3.2-2
		c-1.3-0.5-2.8-0.7-4.5-0.7c-3.3,0-5.9,0.9-7.8,2.7c-1.8,1.8-2.7,4.4-2.7,7.8v2.5h20.9V307z"/>
</g>
<g id="Layer_2">
	<path class="st0" d="M317.1,291.5c0-0.7,0.1-1.5,0.4-2.1c0.3-0.7,0.7-1.3,1.2-1.8c0.5-0.5,1.1-0.9,1.8-1.2c0.7-0.3,1.4-0.4,2.1-0.4
		c0.8,0,1.5,0.1,2.1,0.4c0.7,0.3,1.3,0.7,1.8,1.2l0,0c0.5,0.5,0.9,1.1,1.2,1.8c0.3,0.7,0.4,1.4,0.4,2.1v48.9c0,1.5-0.5,2.9-1.7,3.9
		l0,0c-0.5,0.5-1.1,1-1.8,1.2c-0.7,0.3-1.4,0.4-2.1,0.4c-0.7,0-1.5-0.1-2.1-0.4c-0.7-0.3-1.3-0.7-1.8-1.2c-0.5-0.5-0.9-1.1-1.2-1.8
		c-0.3-0.7-0.4-1.4-0.4-2.1V291.5z M457.8,318c-1.4-0.6-2.7-1.3-3.9-2.2c-1.2-0.9-2.4-1.9-3.4-3.1l0,0c-1.1-1.3-1.9-2.8-2.5-4.5l0,0
		c-0.5-1.7-0.8-3.6-0.8-5.7c0-1.2,0.1-2.5,0.4-3.6c0.3-1.2,0.7-2.3,1.2-3.3c0.5-1,1.1-1.9,1.9-2.8c0.7-0.9,1.5-1.7,2.4-2.4
		c0.9-0.7,1.8-1.3,2.9-1.9c1-0.5,2.1-1,3.3-1.4c2.3-0.7,4.8-1.1,7.3-1.1c1.4,0,2.7,0.1,4,0.2c1.3,0.1,2.5,0.3,3.7,0.6
		c1.1,0.3,2.2,0.5,3.2,0.9v0c1,0.3,2.1,0.7,3.1,1.1l0.1,0c1.1,0.5,1.9,1.2,2.5,2.1l0,0c0.6,0.9,0.9,1.9,0.9,3.1
		c0,0.8-0.1,1.5-0.4,2.1v0c-0.3,0.7-0.7,1.2-1.3,1.7c-0.5,0.5-1.1,0.8-1.8,1.1c-0.6,0.2-1.3,0.3-2,0.3c-0.4,0-0.7-0.1-1.1-0.1l0,0
		c-0.3-0.1-0.7-0.2-1-0.3l-0.1,0c-1.5-0.7-3.2-1.3-4.9-1.6l0,0c-1.7-0.4-3.6-0.6-5.5-0.6c-0.9,0-1.9,0.1-2.7,0.4l0,0
		c-0.5,0.1-0.9,0.3-1.3,0.5c-0.4,0.2-0.8,0.4-1.1,0.6c-0.3,0.2-0.6,0.5-0.9,0.7c-0.3,0.3-0.5,0.6-0.7,1c-0.2,0.3-0.3,0.7-0.4,1.1
		c-0.1,0.4-0.1,0.9-0.1,1.5c0,0.9,0.1,1.6,0.3,2.2c0.2,0.6,0.5,1,0.9,1.4c0.5,0.5,1,0.9,1.5,1.3l0,0c0.5,0.3,1,0.6,1.4,0.8l0,0
		l10.2,4.1c1.8,0.7,3.4,1.6,4.8,2.6c1.4,1,2.7,2.3,3.8,3.6c1.1,1.4,2,2.9,2.5,4.6c0.6,1.7,0.9,3.4,0.9,5.3c0,1.2-0.1,2.4-0.4,3.6v0
		c-0.3,1.2-0.6,2.3-1.1,3.4h0c-0.5,1.1-1.1,2.1-1.7,3.1c-0.7,0.9-1.5,1.8-2.3,2.6c-0.9,0.8-1.8,1.5-2.8,2.2c-1,0.6-2.1,1.2-3.3,1.6
		l0,0c-1.1,0.5-2.4,0.8-3.7,1c-1.3,0.2-2.6,0.3-3.9,0.3c-1.4,0-2.8-0.1-4.2-0.2c-1.4-0.1-2.7-0.3-3.9-0.6c-1.2-0.3-2.4-0.6-3.6-1.1
		l0,0c-1.2-0.4-2.3-0.9-3.4-1.4c-1.1-0.5-1.9-1.1-2.5-2c-0.5-0.9-0.8-1.9-0.8-3.1c0-1.5,0.5-2.8,1.6-3.9c0.5-0.5,1.1-0.9,1.8-1.1
		c0.7-0.2,1.4-0.4,2.1-0.4c0.2,0,0.5,0,0.7,0.1l0,0c0.3,0,0.5,0.1,0.7,0.2c0.3,0.1,0.6,0.2,1,0.4c0.7,0.3,1.6,0.7,2.5,1l0,0
		c0.9,0.3,1.7,0.6,2.6,0.8c0.9,0.2,1.7,0.4,2.7,0.5c0.9,0.1,1.9,0.2,2.9,0.2c1.1,0,2.1-0.1,3-0.4c0.9-0.3,1.8-0.7,2.6-1.3
		c0.7-0.5,1.2-1.1,1.6-1.8c0.4-0.7,0.5-1.5,0.5-2.5s-0.1-1.8-0.3-2.5c-0.2-0.6-0.5-1.2-0.9-1.6c-0.4-0.5-1-1-1.7-1.5l0,0
		c-0.8-0.5-1.7-1-2.7-1.5l0,0L457.8,318L457.8,318z M439,336.6c0,1.5-0.5,2.9-1.4,4.1c-0.4,0.6-0.9,1.1-1.5,1.5
		c-0.6,0.4-1.2,0.7-1.9,1l0,0c-1.4,0.5-2.7,0.9-4.1,1.2c-1.4,0.4-2.8,0.7-4.2,0.9c-1.4,0.3-2.8,0.4-4.3,0.5
		c-1.4,0.1-2.9,0.2-4.3,0.2c-3.5,0-6.5-0.4-9.2-1.3c-2.8-0.9-5.1-2.1-7-3.9c-1.8-1.6-3.2-3.5-4.1-5.8c-0.9-2.3-1.3-4.8-1.3-7.6
		c0-2.7,0.4-5.2,1.3-7.5c0.9-2.3,2.3-4.2,4-5.9l0,0c0.9-0.9,2-1.6,3.2-2.2c1.2-0.6,2.5-1.1,3.8-1.5c1.3-0.4,2.8-0.7,4.4-0.8
		c1.5-0.2,3.2-0.3,4.9-0.3h10.4v-4.9c0-1.3-0.2-2.5-0.6-3.5l0,0c-0.4-0.9-1-1.7-1.8-2.3c-0.9-0.7-1.9-1.2-3-1.5
		c-1.2-0.4-2.6-0.5-4.1-0.5c-2,0-3.9,0.3-5.7,0.8c-0.9,0.3-1.9,0.7-2.8,1.1c-0.9,0.4-1.9,0.9-2.9,1.5l0,0c-0.4,0.3-0.8,0.5-1.3,0.6
		l0,0c-0.5,0.1-0.9,0.2-1.4,0.2c-0.7,0-1.4-0.1-2-0.3c-0.7-0.2-1.2-0.6-1.8-1l0,0c-0.6-0.5-1-1.1-1.3-1.8c-0.3-0.7-0.4-1.4-0.4-2.2
		c0-1,0.2-1.9,0.7-2.8c0.5-0.8,1.1-1.5,2-2.1v0c1.4-0.9,2.7-1.6,4.1-2.2l0,0c1.4-0.6,2.9-1.1,4.3-1.4l0,0c1.4-0.3,2.9-0.6,4.3-0.8
		c1.4-0.2,2.8-0.3,4.2-0.3c2.7,0,5.3,0.4,7.7,1.1l0,0c1.2,0.4,2.4,0.9,3.5,1.4l0,0c1.1,0.6,2.1,1.2,3.1,2c1,0.8,1.9,1.6,2.6,2.6h0
		c0.7,0.9,1.4,2,2,3.2c1.1,2.3,1.7,5,1.7,8V336.6z M427.9,319.8h-10.4c-2.5,0-4.5,0.3-6,0.8l0,0c-0.7,0.2-1.3,0.5-1.8,0.8
		c-0.5,0.3-0.9,0.6-1.2,0.9l0,0c-0.3,0.3-0.6,0.7-0.8,1.1c-0.2,0.4-0.3,0.7-0.4,1.1c-0.1,0.5-0.2,1-0.3,1.5
		c-0.1,0.5-0.1,0.9-0.1,1.4c0,0.5,0,1,0.1,1.4c0.1,0.5,0.1,1,0.3,1.5c0.1,0.4,0.2,0.8,0.4,1.2l0,0c0.2,0.4,0.5,0.8,0.8,1.1l0,0
		c0.3,0.3,0.7,0.7,1.2,1c0.5,0.3,1.1,0.6,1.8,0.9c0.7,0.3,1.5,0.5,2.5,0.6c1,0.1,2.1,0.2,3.4,0.2c3.5,0,7-0.5,10.4-1.4V319.8z
		 M375.2,291.5c0-0.7,0.1-1.5,0.4-2.1c0.3-0.7,0.7-1.3,1.2-1.8c0.5-0.5,1.1-0.9,1.8-1.2c0.7-0.3,1.4-0.4,2.1-0.4
		c0.8,0,1.5,0.1,2.1,0.4c0.7,0.3,1.3,0.7,1.8,1.2l0,0c0.5,0.5,0.9,1.1,1.2,1.8c0.3,0.7,0.4,1.4,0.4,2.1v48.9c0,1.5-0.5,2.9-1.7,3.9
		l0,0c-0.5,0.5-1.1,1-1.8,1.2c-0.7,0.3-1.4,0.4-2.1,0.4c-0.7,0-1.5-0.1-2.1-0.4c-0.7-0.3-1.3-0.7-1.8-1.2c-0.5-0.5-0.9-1.1-1.2-1.8
		c-0.3-0.7-0.4-1.4-0.4-2.1V291.5z M337.7,269.9c0-1.5,0.5-2.8,1.6-3.9l0,0c0.5-0.5,1.1-0.9,1.8-1.2c0.7-0.3,1.4-0.4,2.1-0.4
		c1.5,0,2.9,0.5,3.9,1.6c1.1,1.1,1.7,2.4,1.7,3.9v65h12.5c0.7,0,1.5,0.1,2.1,0.4c0.7,0.3,1.3,0.7,1.8,1.2c0.5,0.5,0.9,1.1,1.2,1.8
		c0.3,0.7,0.4,1.4,0.4,2.1c0,0.8-0.1,1.5-0.4,2.1c-0.3,0.7-0.7,1.3-1.2,1.8l0,0c-0.5,0.5-1.1,0.9-1.8,1.2c-0.7,0.3-1.4,0.4-2.1,0.4
		h-18c-1.5,0-2.9-0.5-3.9-1.7l0,0c-0.5-0.5-0.9-1.1-1.2-1.8c-0.3-0.7-0.4-1.4-0.4-2.1v0l0,0v-0.1V269.9z"/>
</g>
<g id="Layer_3">
	<path class="st1" d="M200.6,320.3c-0.2-1.5,0.7-5.4,0.7-5.4s1.7-1.3,0.6-2.4c-1.1-1.1-1.3-3.9-1.3-3.9l-2-2.2c0,0-1.5-2.2-1.7-3.3
		c-0.2-1.1,0-1.7,0.2-2.8c0.2-1.1-0.4-3-0.4-4.1c6.9-19.5,21.5-24.5,21.7-24.5l1.1,4.6c0,0-2.4,0.7-3.7,0.2
		c-1.3-0.4-1.9-0.4-1.9-0.4l-1.7,2.4c0,0-0.7,1.5-0.9,2.4c-0.2,0.9,0.4,2.1,0.4,2.1s3.1,0.2,3.1-0.6c0-0.9-0.4-1.3-0.4-1.3l-0.4-1.5
		c0,0,1.9-1.1,7.1-0.7c5.2,0.4,3.3,4.1,5.4,5c2.2,0.9-1.7,3.9-2.6,5.6c-0.9,1.7-2.2-2.2-2.2-2.2s1.3-1.5-0.9-1.9
		c-1.7-0.3-3,2.4-2.9,3.4c-0.4,0.1-0.9,0.2-1.3,0.4h0c-0.3,0.1-0.5,0.3-0.7,0.4l0,0c-0.2,0.2-0.4,0.4-0.6,0.6l0,0
		c-0.2,0.2-0.4,0.4-0.5,0.7c-0.1,0.3-0.3,0.5-0.4,0.8c-0.3,0.8-0.4,1.7-0.2,2.6c0.2,0.8,0.6,1.6,1.3,2.2l1.4,1.3
		c-0.7,0.7-1.3,1.2-1.3,1.2s-1.1-0.7-0.5,0.6c0.7,1.3-0.2,4.3-0.2,5.2c0,0.9-2.6-1.5-3-3.7c-0.5-2.2-3-0.3-3.9-0.1
		c-0.9,0.2-2.5-0.4-2.9-1.5c-0.4-1.1-4.3,2.2-5.4,2.8c-1.1,0.6-0.7,2.4,1.1,1.5c1.7-0.9,3.3-0.2,2.8,1.5c-0.4,1.7-2.2,0.7-2,1.7
		c0.2,1.1,2,2.2,2.4,3.7c0.4,1.5,4.6,0.2,5.9-0.4c1.3-0.7,5-1.3,5.4,0.4c0.5,1.7,4.6,2.4,6.1,2.8c1.5,0.4,4.5,0.7,6.3,2.4
		c1.7,1.7-1.3,5-1.5,6.1c-0.2,1.1-1.5,3.7-2.4,5.4c-0.9,1.7-1.3,2.4-2.4,3.3c-1.1,0.9-1.7,2.4-1.7,2.4l-0.2,3.7c0,0,0.4,3.1,1.1,4.1
		c0.6,1.1-2.3,7.5-2.3,7.5c-1.9-0.4-2.9-2.6-3.6-4.3c-0.7-1.7-1.5-2.7-1.3-4.6c0.2-1.9-1.7-3-2.3-4.1c-0.7-1.1-1.5-2.6-1.5-3.7
		c0-1.1-2.4-2.6-2.4-2.6s-4.3-1.9-5-2.8C201.5,325.5,200.8,321.8,200.6,320.3L200.6,320.3z M246.2,318.8c0-19.1,14.6-4.7,14.6-4.7
		c8.4,5.6,9.5-4.6,9.5-4.6l6.1-2.2l0.6-2.8l-0.9-3.9l-8.9-3.7c0,0-0.9,2.9,1.4,6.4c0,0-0.8,4.1-2.6,3l-5.2-2.6c0,0-1.7-0.7-4.5,0.9
		c-1.6,0.9-3.8,0.8-5.4,0.5l11.2-11.9c0.9,0.7,1.9,1.3,3.2,1.1c3.3-0.5,1.7-1.1,3.9-2.2c2.2-1.1,3.9,2.2,3.9,2.2l4.5,0.6
		c0,0-0.1-3.9-0.1-5c3.1,4.7,5.8,14.4,5.3,21.3c-0.9-0.4-1.9-0.7-1.9-0.7h-5.6l3.3,3.9c0,0,1.6,2.4,3.9,2.2
		c-1.5,17.5-16.1,28.7-16.1,28.7c-2.2-2.2-1.1-4.2-1.1-4.2l0.6-3.4l0.3-5.6c0,0,0-5.9-5.6-3.1c-6,1.5-3.5,1.5-9.5,1.9
		C245.2,331.5,246.2,318.8,246.2,318.8L246.2,318.8z M256.8,279.8l3.5-2.3c0,0-1.5-3.7-1.2-5.6c0.9-0.1,4.3,1.8,7.1,4.4
		c-0.2,0.9-0.5,1.6-0.8,2.2c-0.8,0.1-1.6,0.4-2.4,0.9l-0.7,0.7l-2,2.1l-0.4,0.4c-0.2,0-0.3,0-0.3,0S256.3,282.6,256.8,279.8
		L256.8,279.8z M228.3,271.3c4.6-4.3,12-3.4,12.5-2.4c-1.3,2.2-3.3,1.5-3.5,3.6c-0.2,2.1-3.7,5-3.3,5.9c0.4,0.9,0,4.6-3,1.3
		c-3.1-3.3-6.1-4.4-5.9-6.5C225.2,272.8,228.3,272.1,228.3,271.3L228.3,271.3z"/>
</g>
<g id="Layer_4">
	<path class="st0" d="M243.3,248.5c15.4,1.1,29.3,7.9,39.6,18.2c11.3,11.3,18.3,27,18.3,44.3c0,17.3-7,32.9-18.3,44.3
		c-11.3,11.3-27,18.3-44.3,18.3s-32.9-7-44.3-18.3c-11.3-11.3-18.3-27-18.3-44.3c0-17.3,7-33,18.3-44.3c10.3-10.3,24.2-17,39.6-18.2
		c-2.3-0.7-4.3-1.9-5.9-3.4c-2.7-2.5-4.4-6.1-4.4-10c0-3.9,1.7-7.4,4.4-10c2.7-2.5,6.5-4.1,10.6-4.1c4.1,0,7.9,1.6,10.6,4.1
		c2.7,2.6,4.4,6.1,4.4,10c0,3.9-1.7,7.4-4.4,10C247.6,246.6,245.6,247.7,243.3,248.5L243.3,248.5z M276.9,272.8L276.9,272.8
		L276.9,272.8c0.3,0.3,0.5,0.8,0.5,1.2c0,0.4-0.1,0.9-0.5,1.2l0,0l0,0l0,0c-0.3,0.3-0.8,0.5-1.2,0.5c-0.4,0-0.9-0.2-1.2-0.5l0,0
		c-0.3-0.3-0.5-0.8-0.5-1.2c0-0.4,0.2-0.9,0.5-1.2l0,0c0.3-0.3,0.8-0.5,1.2-0.5C276.1,272.3,276.5,272.5,276.9,272.8L276.9,272.8z
		 M202.7,275.1L202.7,275.1L202.7,275.1c-0.3,0.3-0.8,0.5-1.2,0.5c-0.4,0-0.9-0.2-1.2-0.5l0,0l0,0l0,0c-0.3-0.3-0.5-0.8-0.5-1.2
		c0-0.4,0.2-0.9,0.5-1.2l0,0l0,0c0.3-0.3,0.8-0.5,1.2-0.5c0.4,0,0.9,0.2,1.2,0.5l0,0l0,0l0,0c0.3,0.3,0.5,0.8,0.5,1.2l0,0
		C203.2,274.3,203.1,274.7,202.7,275.1L202.7,275.1z M202.8,346.9L202.8,346.9c0.3,0.3,0.5,0.8,0.5,1.2c0,0.4-0.1,0.9-0.5,1.2l0,0
		l0,0c-0.3,0.3-0.8,0.5-1.2,0.5l0,0c-0.4,0-0.9-0.2-1.2-0.5c-0.3-0.3-0.5-0.8-0.5-1.2c0-0.4,0.2-0.9,0.5-1.2l0,0
		c0.3-0.3,0.8-0.5,1.2-0.5l0,0C202.1,346.4,202.5,346.5,202.8,346.9L202.8,346.9z M276.8,349.2L276.8,349.2L276.8,349.2
		c-0.3,0.3-0.8,0.5-1.2,0.5l0,0c-0.4,0-0.9-0.2-1.2-0.5l0,0c-0.3-0.3-0.5-0.7-0.5-1.2c0-0.4,0.1-0.9,0.5-1.2v0l0,0l0,0
		c0.3-0.3,0.8-0.5,1.2-0.5c0.4,0,0.9,0.2,1.2,0.5l0,0l0,0c0.3,0.3,0.5,0.8,0.5,1.2C277.3,348.5,277.1,348.9,276.8,349.2L276.8,349.2
		z M238.6,266.7c-12.2,0-23.3,5-31.3,13c-8,8-13,19.1-13,31.3c0,12.2,5,23.3,13,31.3c8,8,19.1,13,31.3,13c12.2,0,23.3-5,31.3-13
		c8-8,13-19.1,13-31.3c0-12.2-5-23.3-13-31.3C261.9,271.7,250.8,266.7,238.6,266.7L238.6,266.7z M204.2,276.5
		c8.8-8.8,21-14.3,34.4-14.3c13.4,0,25.6,5.5,34.4,14.3c8.8,8.8,14.3,21,14.3,34.5c0,13.4-5.5,25.6-14.3,34.4
		c-8.8,8.8-21,14.3-34.4,14.3c-13.4,0-25.6-5.5-34.4-14.3c-8.8-8.8-14.3-21-14.3-34.4C189.9,297.5,195.4,285.3,204.2,276.5
		L204.2,276.5z M238.1,309.9l-0.1,0.1l0,0c-0.1,0-0.1,0.1-0.1,0.1c-0.1,0-0.1,0.1-0.1,0.1l-0.2,0.2l-0.1,0.3
		c-0.1,0.2-0.1,0.4-0.1,0.6c0,0.2,0.1,0.4,0.1,0.6l0,0c0.2,0.3,0.5,0.6,0.9,0.7l0,0c0.4,0.1,0.7,0.1,1.1-0.1l0.1-0.1
		c0.3-0.2,0.6-0.5,0.7-0.9c0.1-0.3,0.1-0.7-0.1-1.1l0,0l0,0l-0.1-0.3l-0.2-0.2c-0.2-0.2-0.5-0.3-0.8-0.3
		C238.6,309.7,238.3,309.7,238.1,309.9L238.1,309.9z M236.7,306.9c0.8-0.4,1.6-0.5,2.5-0.5c0.4,0.1,0.8,0.1,1.1,0.3l21.6-22.9l2-2.1
		l0,0c0.7-0.8,1.7-0.9,2.5-0.5l0,0c0.3,0.1,0.5,0.3,0.7,0.5c0.2,0.2,0.4,0.4,0.5,0.7c0.3,0.7,0.3,1.7-0.4,2.5l0,0l-23.9,25.3
		c0.2,0.8,0.1,1.7-0.1,2.4c-0.3,1.1-1.1,2.2-2.3,2.8l-0.1,0.1c-1.1,0.6-2.4,0.7-3.6,0.3l0,0c-1.2-0.3-2.2-1.1-2.8-2.3l0,0
		c-0.3-0.7-0.5-1.4-0.5-2.1c0-0.3,0-0.6,0.1-0.9L217,294.8c-0.8-0.7-0.9-1.7-0.6-2.4c0.1-0.3,0.3-0.5,0.5-0.7
		c0.2-0.2,0.4-0.4,0.7-0.5c0.7-0.4,1.7-0.3,2.5,0.4L236.7,306.9z M182.7,308.7h3.9c1.1,0,1.7,0.6,2,1.4c0.1,0.3,0.2,0.6,0.2,0.9
		c0,0.3-0.1,0.6-0.2,0.9c-0.3,0.8-1,1.4-2,1.4h-3.9c0.6,14.6,6.7,27.7,16.4,37.4c9.7,9.6,22.8,15.8,37.4,16.3v-4.1
		c0-1.1,0.6-1.7,1.3-2c0.3-0.1,0.6-0.2,0.9-0.2c0.3,0,0.6,0.1,0.9,0.2c0.7,0.3,1.3,1,1.3,2v4.1c14.6-0.6,27.7-6.7,37.4-16.3
		c9.7-9.7,15.8-22.8,16.4-37.4h-4.1c-1.1,0-1.7-0.6-2-1.4c-0.1-0.3-0.2-0.6-0.2-0.9c0-0.3,0.1-0.6,0.2-0.9c0.3-0.8,1-1.4,2-1.4h4.1
		c-0.6-14.6-6.7-27.7-16.4-37.4c-9.7-9.7-22.8-15.8-37.4-16.4v3.9c0,1.1-0.6,1.7-1.3,2c-0.3,0.1-0.6,0.2-0.9,0.2
		c-0.3,0-0.6-0.1-0.9-0.2c-0.7-0.3-1.3-1-1.3-2v-3.9c-14.6,0.6-27.7,6.7-37.4,16.4C189.4,280.9,183.2,294.1,182.7,308.7L182.7,308.7
		z M245.4,238.5c0,0.2-0.3,0.4-0.6,0.4h-3.6v6.1c2.1-0.4,4-1.4,5.5-2.8c2-1.9,3.3-4.4,3.3-7.2c0-2.8-1.3-5.4-3.3-7.2
		c-2-1.9-4.8-3-7.9-3c-3.1,0-5.9,1.1-7.9,3c-2,1.9-3.3,4.4-3.3,7.2c0,2.8,1.3,5.4,3.3,7.2c1.4,1.3,3.2,2.3,5.2,2.7v-6.1h-3.6
		c-0.3,0-0.6-0.2-0.6-0.4v-4.8c0-0.2,0.3-0.4,0.6-0.4h12.5c0.3,0,0.6,0.2,0.6,0.4V238.5z"/>
</g>
</svg>
